<svg width="200" height="97" viewBox="0 0 200 97" fill="none" xmlns="http://www.w3.org/2000/svg">
<path d="M14.4062 56.1748V37.2755H19.4069V44.3127H25.0469V37.2755H30.0475V56.1748H25.0469V48.6738H19.4069V56.1748H14.4062ZM38.2347 56.5239C36.6456 56.5239 35.4924 55.9907 34.7741 54.9246C34.0567 53.8395 33.6983 52.3951 33.6983 50.5936V41.638H38.6989V49.9541C38.6989 50.8848 38.8153 51.5048 39.0476 51.815C39.2999 52.1247 39.668 52.2801 40.1526 52.2801C40.6177 52.2801 41.0058 52.1827 41.3156 51.9893C41.6258 51.7955 41.936 51.4658 42.2462 51.0007V41.639H47.2468V56.1743H43.1764L42.8277 54.2555H42.7113C42.1298 54.9534 41.4807 55.5056 40.7638 55.9128C40.0659 56.3199 39.2224 56.523 38.2343 56.523L38.2347 56.5239ZM55.9158 62.164C54.8108 62.164 53.793 62.0379 52.8637 61.7861C51.9335 61.5533 51.187 61.1754 50.6249 60.6518C50.0824 60.1288 49.8111 59.4309 49.8111 58.5587C49.8111 57.4152 50.4891 56.485 51.8463 55.7672V55.6512C51.4745 55.3763 51.1503 55.0424 50.8865 54.6626C50.6347 54.2555 50.5086 53.7514 50.5086 53.1509C50.5086 52.6469 50.6542 52.1526 50.9444 51.668C51.2586 51.1792 51.6633 50.7549 52.1366 50.4178V50.3015C51.6136 49.9527 51.1485 49.4584 50.7413 48.8185C50.3537 48.1596 50.1599 47.4135 50.1599 46.5802C50.1599 45.3783 50.4506 44.3897 51.0321 43.6157C51.633 42.8209 52.4084 42.2399 53.358 41.8713C54.3077 41.4841 55.3158 41.2898 56.3823 41.2898C57.2355 41.2898 58.0104 41.4062 58.7083 41.639H64.1151V45.2452H62.0219C62.0896 45.4635 62.1381 45.6872 62.1671 45.9139C62.225 46.1856 62.2542 46.4666 62.2542 46.7569C62.2542 47.9008 61.9927 48.831 61.4692 49.5484C60.9457 50.2458 60.2385 50.7596 59.3468 51.0893C58.4551 51.4185 57.4669 51.5836 56.3828 51.5836C55.8982 51.5836 55.3552 51.5154 54.7547 51.3796C54.5219 51.5929 54.4055 51.8739 54.4055 52.2231C54.4055 52.5333 54.5609 52.7563 54.8711 52.8917C55.2003 53.0276 55.7239 53.0953 56.4408 53.0953H58.6216C60.4435 53.0953 61.849 53.3958 62.8371 53.9967C63.8447 54.5782 64.3488 55.5372 64.3488 56.8754C64.3488 57.9225 64.0001 58.8429 63.3022 59.6368C62.6238 60.4311 61.6547 61.0511 60.3957 61.4972C59.1363 61.9433 57.6431 62.1663 55.9195 62.1663L55.9158 62.164ZM56.3809 48.6163C56.846 48.6163 57.2239 48.4517 57.5147 48.122C57.8054 47.7928 57.9506 47.279 57.9506 46.5816C57.9506 45.9027 57.8054 45.4084 57.5147 45.0987C57.2239 44.7694 56.846 44.6044 56.3809 44.6044C55.9154 44.6044 55.5374 44.769 55.2472 45.0987C54.956 45.4089 54.8108 45.9027 54.8108 46.5816C54.8108 47.279 54.956 47.7928 55.2467 48.122C55.5374 48.4517 55.9154 48.6163 56.3809 48.6163ZM56.7296 59.0845C57.5434 59.0845 58.2223 58.9584 58.7648 58.7066C59.3074 58.4738 59.5786 58.1539 59.5786 57.7467C59.5786 57.3595 59.4043 57.117 59.0556 57.0201C58.7264 56.9232 58.2511 56.875 57.6311 56.875H56.4973C55.9154 56.875 55.4697 56.8555 55.1595 56.8165C54.9044 56.8029 54.6512 56.7641 54.4037 56.7006C54.055 57.0493 53.8806 57.398 53.8806 57.7472C53.8806 58.2123 54.1422 58.5512 54.6652 58.7646C55.2082 58.9779 55.8964 59.0845 56.7296 59.0845ZM71.7862 62.1668C70.6816 62.1668 69.6643 62.0406 68.7345 61.7888C67.8039 61.5561 67.0578 61.1781 66.4958 60.6546C65.9532 60.1316 65.6815 59.4337 65.6815 58.5615C65.6815 57.418 66.3599 56.4873 67.7172 55.7699V55.654C67.3453 55.3792 67.021 55.0452 66.7573 54.6654C66.5055 54.2583 66.3794 53.7542 66.3794 53.1537C66.3794 52.6497 66.525 52.1554 66.8152 51.6708C67.1295 51.1819 67.5343 50.7576 68.0079 50.4206V50.3042C67.4839 49.9555 67.0193 49.4612 66.6121 48.8213C66.224 48.1624 66.0307 47.4163 66.0307 46.583C66.0307 45.3811 66.3214 44.3924 66.9024 43.6185C67.5034 42.8237 68.2787 42.2427 69.2288 41.8741C70.1785 41.4869 71.1861 41.2926 72.2531 41.2926C73.1063 41.2926 73.8817 41.409 74.5795 41.6417H79.9864V45.248H77.8927C77.9512 45.4228 77.9994 45.6454 78.0383 45.9166C78.0963 46.1879 78.1255 46.4694 78.1255 46.7597C78.1255 47.9036 77.864 48.8338 77.3404 49.5512C76.8174 50.2486 76.1098 50.7624 75.2181 51.0921C74.3264 51.4213 73.3377 51.5864 72.2541 51.5864C71.7695 51.5864 71.2269 51.5182 70.626 51.3824C70.3932 51.5957 70.2768 51.8767 70.2768 52.2258C70.2768 52.5361 70.4321 52.7591 70.7419 52.8945C71.0716 53.0299 71.5951 53.0981 72.312 53.0981H74.4928C76.3143 53.0981 77.7202 53.3985 78.7079 53.999C79.716 54.581 80.2201 55.5399 80.2201 56.8787C80.2201 57.9252 79.8714 58.8457 79.1735 59.6396C78.4951 60.4339 77.5259 61.0539 76.267 61.5C75.0071 61.946 73.5139 62.1686 71.7904 62.1686L71.7862 62.1668ZM72.2513 48.6191C72.7164 48.6191 73.0943 48.4545 73.3855 48.1248C73.6762 47.7956 73.8214 47.2818 73.8214 46.5844C73.8214 45.9055 73.6762 45.4112 73.3855 45.1015C73.0943 44.7722 72.7164 44.6071 72.2513 44.6071C71.7866 44.6071 71.4082 44.7718 71.1175 45.1015C70.8268 45.4112 70.6816 45.9055 70.6816 46.5844C70.6816 47.2818 70.8268 47.7956 71.1175 48.1248C71.4082 48.4545 71.7866 48.6191 72.2513 48.6191ZM72.6004 59.0873C73.4147 59.0873 74.0926 58.9612 74.6356 58.7094C75.1782 58.4766 75.4495 58.1566 75.4495 57.7495C75.4495 57.3623 75.2751 57.1198 74.9264 57.0229C74.5972 56.926 74.1219 56.8777 73.5014 56.8777H72.3677C71.7866 56.8777 71.3406 56.8583 71.0303 56.8193C70.7752 56.8057 70.522 56.7669 70.2745 56.7034C69.9258 57.0521 69.751 57.4008 69.751 57.75C69.751 58.2151 70.013 58.554 70.5365 58.7673C71.079 58.9806 71.7672 59.0873 72.6004 59.0873ZM82.3661 56.1808V41.6455H87.3662V56.1808H82.3661ZM84.8659 39.8421C84.0521 39.8421 83.3927 39.6195 82.8887 39.1734C82.3851 38.7083 82.1328 38.0976 82.1328 37.3418C82.1328 36.586 82.3851 35.985 82.8887 35.5389C83.3927 35.0738 84.0521 34.8415 84.8659 34.8415C85.6802 34.8415 86.3391 35.0738 86.8432 35.5389C87.3468 35.985 87.599 36.586 87.599 37.3418C87.599 38.0976 87.3468 38.7083 86.8432 39.1734C86.3391 39.6191 85.6802 39.8421 84.8659 39.8421ZM90.7425 56.1808V41.6455H94.8124L95.1611 43.3895H95.2775C95.8695 42.8196 96.5344 42.3308 97.2548 41.9357C98.0106 41.5091 98.8824 41.2958 99.8715 41.2958C101.48 41.2958 102.632 41.8388 103.332 42.9244C104.049 43.9909 104.408 45.4247 104.408 47.228V56.1836H99.4073V47.8675C99.4073 46.9373 99.2909 46.3168 99.0586 46.0066C98.8258 45.6964 98.4576 45.5415 97.9536 45.5415C97.4885 45.5415 97.1004 45.6384 96.7906 45.8323C96.4804 46.0261 96.1317 46.2978 95.744 46.6465V56.1812L90.7425 56.1808ZM112.954 62.1695C111.849 62.1695 110.832 62.0434 109.902 61.7916C108.972 61.5588 108.226 61.1809 107.664 60.6574C107.121 60.1343 106.85 59.4365 106.85 58.5642C106.85 57.4207 107.528 56.4901 108.885 55.7727V55.6568C108.513 55.3819 108.189 55.0479 107.925 54.6682C107.673 54.261 107.548 53.757 107.548 53.1565C107.548 52.652 107.693 52.1577 107.984 51.6736C108.298 51.1848 108.702 50.7605 109.175 50.4234V50.307C108.652 49.9583 108.187 49.464 107.78 48.8241C107.392 48.1652 107.198 47.4191 107.198 46.5853C107.198 45.3839 107.489 44.3952 108.071 43.6213C108.672 42.8265 109.447 42.245 110.397 41.8768C111.346 41.4892 112.354 41.2954 113.421 41.2954C114.274 41.2954 115.049 41.4113 115.747 41.6445H121.154V45.2508H119.061C119.119 45.4256 119.167 45.6482 119.206 45.9194C119.264 46.1907 119.293 46.4717 119.293 46.7625C119.293 47.9064 119.032 48.8366 118.508 49.554C117.985 50.2514 117.277 50.7652 116.386 51.0949C115.494 51.4241 114.506 51.5892 113.422 51.5892C112.937 51.5892 112.394 51.521 111.794 51.3851C111.561 51.5984 111.445 51.8794 111.445 52.2286C111.445 52.5384 111.6 52.7614 111.91 52.8973C112.239 53.0327 112.762 53.1008 113.48 53.1008H115.661C117.483 53.1008 118.888 53.4013 119.876 54.0018C120.884 54.5838 121.388 55.5427 121.388 56.8814C121.388 57.928 121.039 58.8485 120.341 59.6424C119.663 60.4367 118.694 61.0567 117.435 61.5027C116.175 61.9488 114.682 62.1714 112.958 62.1714L112.954 62.1695ZM113.42 48.6219C113.885 48.6219 114.263 48.4573 114.553 48.1276C114.844 47.7984 114.989 47.2846 114.989 46.5867C114.989 45.9083 114.844 45.414 114.553 45.1042C114.263 44.775 113.885 44.6099 113.42 44.6099C112.954 44.6099 112.577 44.7745 112.286 45.1042C111.995 45.414 111.85 45.9083 111.85 46.5867C111.85 47.2846 111.995 47.7984 112.286 48.1276C112.577 48.4573 112.954 48.6219 113.42 48.6219ZM113.768 59.0901C114.583 59.0901 115.261 58.9639 115.803 58.7122C116.346 58.4794 116.617 58.1594 116.617 57.7523C116.617 57.3651 116.443 57.1226 116.094 57.0257C115.765 56.9287 115.29 56.8801 114.67 56.8801H113.536C112.954 56.8801 112.508 56.861 112.199 56.8221C111.943 56.8085 111.69 56.7697 111.443 56.7062C111.094 57.0549 110.919 57.4036 110.919 57.7523C110.919 58.2178 111.181 58.5568 111.704 58.7701C112.247 58.9834 112.935 59.0901 113.768 59.0901ZM129.761 56.1836V37.2843H142.087V41.4697H134.762V45.076H141.042V49.2614H134.762V56.1808L129.761 56.1836ZM147.557 56.5323C146.646 56.5323 145.861 56.3287 145.202 55.922C144.573 55.5071 144.062 54.9361 143.72 54.2648C143.37 53.5863 143.196 52.8495 143.196 52.0552C143.196 50.543 143.816 49.3611 145.057 48.5088C146.297 47.637 148.312 47.0555 151.103 46.7643C150.987 45.7567 150.308 45.2526 149.068 45.2526C148.544 45.2526 147.992 45.3593 147.411 45.5726C146.829 45.7664 146.16 46.0669 145.405 46.474L143.66 43.2188C144.688 42.5984 145.725 42.1235 146.77 41.7938C147.834 41.4648 148.941 41.2981 150.055 41.2995C151.955 41.2995 153.436 41.8425 154.504 42.9281C155.57 43.9941 156.103 45.7196 156.103 48.1044V56.1868H152.033L151.684 54.7915H151.568C151.008 55.3 150.382 55.7304 149.707 56.0709C149.067 56.3811 148.35 56.536 147.555 56.536L147.557 56.5323ZM149.302 52.6951C149.709 52.6951 150.048 52.6079 150.319 52.4336C150.609 52.2231 150.872 51.9792 151.104 51.7069V49.7297C149.922 49.9045 149.098 50.1656 148.633 50.5148C148.187 50.8639 147.964 51.2419 147.964 51.649C147.964 52.3464 148.41 52.6951 149.302 52.6951ZM165.937 56.5323C164.56 56.5323 163.32 56.2318 162.215 55.6308C161.11 55.0303 160.228 54.1674 159.569 53.0433C158.929 51.8998 158.61 50.5236 158.61 48.9154C158.61 47.3068 158.968 45.9403 159.685 44.8149C160.422 43.6714 161.381 42.7992 162.565 42.1982C163.747 41.5977 165.026 41.2972 166.402 41.2972C167.273 41.2972 168.059 41.4326 168.756 41.7039C169.474 41.9756 170.103 42.3438 170.646 42.8089L168.321 46.0066C168.01 45.7353 167.729 45.5512 167.478 45.4543C167.227 45.3575 166.961 45.3081 166.692 45.3087C165.762 45.3087 165.035 45.638 164.512 46.2974C163.989 46.9373 163.727 47.809 163.727 48.9136C163.727 50.0186 163.998 50.9006 164.541 51.5595C165.083 52.1994 165.742 52.5194 166.518 52.5194C166.929 52.5184 167.336 52.429 167.71 52.2574C168.107 52.0692 168.487 51.8454 168.844 51.5887L170.763 54.8439C170.046 55.4838 169.251 55.929 168.378 56.1812C167.507 56.4136 166.692 56.53 165.937 56.53V56.5323ZM178.944 56.5323C177.528 56.5323 176.249 56.2318 175.106 55.6308C173.982 55.0303 173.09 54.1674 172.431 53.0433C171.773 51.8998 171.443 50.5236 171.443 48.9154C171.443 47.3453 171.772 45.9978 172.431 44.8752C173.11 43.7317 173.982 42.8497 175.048 42.2297C176.114 41.6093 177.238 41.2991 178.421 41.2991C179.856 41.2991 181.038 41.619 181.967 42.2589C182.917 42.8789 183.615 43.7219 184.061 44.788C184.526 45.8545 184.758 47.0365 184.758 48.334C184.758 48.7606 184.729 49.1774 184.671 49.5841C184.632 49.9718 184.593 50.2528 184.555 50.4276H176.268C176.501 51.2993 176.918 51.91 177.519 52.2592C178.12 52.5885 178.827 52.7531 179.641 52.7531C180.572 52.7531 181.56 52.4623 182.605 51.8813L184.234 54.8453C183.458 55.3878 182.586 55.8047 181.617 56.0955C180.648 56.3857 179.756 56.5313 178.942 56.5313L178.944 56.5323ZM176.21 47.17H180.513C180.513 46.6085 180.368 46.1239 180.077 45.7168C179.806 45.2902 179.293 45.0769 178.537 45.0769C178.01 45.0716 177.497 45.2459 177.083 45.5712C176.656 45.9009 176.366 46.4337 176.211 47.1705L176.21 47.17Z" fill="#664DFF"/>
</svg>
