<svg width="200" height="97" viewBox="0 0 200 97" fill="none" xmlns="http://www.w3.org/2000/svg">
<path d="M59.7386 65.7361V54.4506L52.201 34.2305H55.9936L61.5338 49.8377L67.93 30.967H71.4135L63.2071 54.5754V65.7391L59.7386 65.7361ZM82.0778 65.7361H79.168C79.0222 65.1554 78.9229 64.5641 78.8708 63.9676H78.6568C77.6819 65.2071 76.4246 66.0452 74.4749 66.0452C71.3154 66.0452 69.1486 63.6585 69.1486 59.2953C69.1486 54.5397 71.5829 51.5407 77.8038 51.5407H78.2823V50.224C78.2823 47.3113 77.3074 46.0748 75.3725 46.0748C73.604 46.0748 72.103 47.0022 70.9587 48.0097L70.2929 44.9751C71.3154 44.1399 73.3454 43.2126 75.5865 43.2126C79.5217 43.2126 81.6736 44.8859 81.6736 50.2716V60.7071C81.6736 62.8263 81.8876 64.6869 82.057 65.7391L82.0778 65.7361ZM78.3001 54.1563H77.8959C73.607 54.1563 72.6975 56.0437 72.6975 58.9089C72.6975 61.465 73.5327 63.1324 75.2803 63.1324C76.4722 63.1324 77.667 62.3448 78.2853 61.3699L78.3001 54.1563ZM89.4014 65.7361H85.9655V43.4593H89.4014V45.409H89.6154C90.2366 44.5738 91.91 43.2096 93.9816 43.2096C96.8914 43.2096 98.4251 44.8354 98.4251 48.2267V65.7361H94.9416V48.5358C94.9416 46.8625 94.2015 46.2769 92.87 46.2769C91.4285 46.2769 90.2069 47.3915 89.4014 48.4883V65.7361ZM101.828 55.473C101.828 47.2221 104.91 43.2126 109.354 43.2126C110.421 43.2126 111.521 43.5692 112.186 44.0478V34.2305H115.622V65.7361H113.066L112.79 63.9676H112.573C111.613 65.2071 110.376 66.0452 108.566 66.0452C104.2 66.0452 101.828 62.3448 101.828 55.473ZM112.189 47.0824C111.491 46.3839 110.736 46.0273 109.586 46.0273C106.816 46.0273 105.484 50.224 105.484 54.7567C105.484 59.9611 106.459 63.1295 108.982 63.1295C110.703 63.1295 111.613 62.2943 112.189 61.4145V47.0824ZM126.474 66.0452C121.894 66.0452 119.058 62.3924 119.058 55.5622C119.058 48.414 121.041 43.2096 125.761 43.2096C129.461 43.2096 131.875 45.9797 131.875 53.5381V55.4254H122.634C122.634 60.4574 124.046 63.0908 126.783 63.0908C128.721 63.0908 130.145 62.2229 131.013 61.6047L131.818 64.2351C130.298 65.4338 128.409 66.073 126.474 66.0452ZM122.681 52.5929H128.364C128.364 48.8004 127.743 46.0302 125.761 46.0302C123.656 46.0302 122.916 48.6309 122.667 52.5929H122.681ZM146.834 43.5217L142.699 53.9245L147.312 65.7391H143.755L140.298 56.5727L136.957 65.7391H133.566L138.193 54.2336L134 43.5217H137.575L140.455 51.5853L143.487 43.5217H146.834Z" fill="#664DFF"/>
</svg>
