<svg width="200" height="96" viewBox="0 0 200 96" fill="none" xmlns="http://www.w3.org/2000/svg">
<path d="M72.4611 42.683H59.9825V46.386H68.8342C68.3946 51.577 64.0744 53.792 59.9994 53.792C57.376 53.792 54.86 52.7499 53.005 50.8949C51.1499 49.0398 50.1078 46.5239 50.1078 43.9004C50.1078 41.277 51.1499 38.7611 53.005 36.906C54.86 35.051 57.376 34.0088 59.9994 34.0088C62.486 34.005 64.8772 34.9657 66.6699 36.6889L69.2654 34.0004C66.7584 31.5766 63.3931 30.2451 59.9064 30.2974C58.12 30.3102 56.3536 30.6746 54.7081 31.3701C53.0626 32.0655 51.5702 33.0782 50.3161 34.3504C49.0619 35.6226 48.0706 37.1293 47.3988 38.7846C46.727 40.4399 46.3878 42.2113 46.4006 43.9977C46.4133 45.7841 46.7778 47.5504 47.4732 49.1959C48.1686 50.8415 49.1814 52.3339 50.4535 53.588C51.7257 54.8421 53.2325 55.8334 54.8878 56.5052C56.5431 57.1771 58.3145 57.5163 60.1008 57.5035C67.38 57.5035 72.7147 52.5154 72.7147 45.1348C72.7298 44.3116 72.6533 43.4893 72.4865 42.683H72.4611ZM82.6824 40.003C80.9564 40.0097 79.2709 40.5272 77.8385 41.4903C76.4061 42.4535 75.2909 43.8191 74.6335 45.415C73.976 47.011 73.8058 48.7659 74.1441 50.4585C74.4825 52.1511 75.3144 53.7056 76.5349 54.9261C77.7555 56.1466 79.31 56.9785 81.0026 57.3169C82.6952 57.6553 84.45 57.485 86.046 56.8276C87.642 56.1701 89.0076 55.0549 89.9707 53.6225C90.9338 52.1901 91.4514 50.5047 91.4581 48.7786C91.4763 47.6211 91.2618 46.4718 90.8273 45.3988C90.3927 44.3259 89.747 43.3512 88.9284 42.5326C88.1099 41.7141 87.1352 41.0683 86.0622 40.6338C84.9893 40.1992 83.8399 39.9847 82.6824 40.003ZM82.7332 43.4355C83.7971 43.3728 84.8553 43.6312 85.7706 44.1773C86.6858 44.7233 87.4159 45.5318 87.8661 46.4979C88.3162 47.4639 88.4658 48.5429 88.2952 49.595C88.1247 50.647 87.642 51.6235 86.9097 52.3979C86.1774 53.1723 85.2293 53.7087 84.1884 53.9377C83.1475 54.1666 82.0618 54.0775 81.0722 53.682C80.0825 53.2864 79.2346 52.6026 78.6383 51.7192C78.042 50.8358 77.7249 49.7937 77.7282 48.7279C77.6927 48.0477 77.7957 47.3674 78.031 46.7282C78.2662 46.089 78.6288 45.5043 79.0968 45.0094C79.5648 44.5145 80.1284 44.1199 80.7535 43.8493C81.3786 43.5788 82.0521 43.438 82.7332 43.4355ZM101.806 40.003C100.08 40.008 98.3935 40.5241 96.96 41.4862C95.5265 42.4484 94.4099 43.8134 93.7512 45.4092C93.0924 47.005 92.921 48.7602 93.2584 50.4533C93.5958 52.1465 94.4271 53.7018 95.6473 54.9232C96.8674 56.1445 98.422 56.9773 100.115 57.3163C101.808 57.6554 103.563 57.4856 105.159 56.8284C106.756 56.1712 108.122 55.056 109.085 53.6234C110.049 52.1908 110.567 50.505 110.573 48.7786C110.592 47.6219 110.377 46.4732 109.943 45.4008C109.509 44.3284 108.864 43.3541 108.047 42.5357C107.229 41.7172 106.255 41.0713 105.183 40.6363C104.111 40.2012 102.963 39.9859 101.806 40.003ZM101.857 43.4355C102.921 43.3728 103.979 43.6312 104.894 44.1773C105.81 44.7233 106.54 45.5318 106.99 46.4979C107.44 47.4639 107.59 48.5429 107.419 49.595C107.248 50.647 106.766 51.6235 106.033 52.3979C105.301 53.1723 104.353 53.7087 103.312 53.9377C102.271 54.1666 101.186 54.0775 100.196 53.682C99.2063 53.2864 98.3583 52.6026 97.7621 51.7192C97.1658 50.8358 96.8487 49.7937 96.8519 48.7279C96.8164 48.0477 96.9195 47.3674 97.1547 46.7282C97.39 46.089 97.7526 45.5043 98.2206 45.0094C98.6886 44.5145 99.2522 44.1199 99.8773 43.8493C100.502 43.5788 101.176 43.438 101.857 43.4355ZM120.55 40.0114C115.849 40.0114 112.154 44.1287 112.154 48.7448C112.12 51.0005 112.97 53.18 114.524 54.8158C116.078 56.4516 118.21 57.4135 120.465 57.4951C121.375 57.5446 122.283 57.3782 123.116 57.0094C123.95 56.6406 124.684 56.0798 125.259 55.373V57.0639C125.259 60.0821 123.424 61.8829 120.659 61.8829C119.695 61.8749 118.755 61.5794 117.96 61.0342C117.165 60.4889 116.551 59.7188 116.196 58.8224L112.814 60.2258C113.468 61.7657 114.564 63.0768 115.964 63.9934C117.363 64.9099 119.003 65.3906 120.676 65.3745C125.352 65.3745 128.911 62.4324 128.911 56.2607V40.5356H125.267V42.0151C124.669 41.3635 123.939 40.8476 123.125 40.5019C122.312 40.1563 121.433 39.9891 120.55 40.0114ZM120.888 43.4355C123.196 43.4355 125.554 45.4053 125.554 48.7617C125.554 52.1181 123.196 54.0626 120.837 54.0626C120.17 54.0456 119.513 53.8946 118.906 53.6184C118.298 53.3422 117.753 52.9466 117.301 52.4551C116.85 51.9636 116.503 51.3863 116.279 50.7576C116.056 50.1288 115.961 49.4616 116.001 48.7955C116.001 45.4138 118.419 43.4355 120.888 43.4355ZM145.236 39.9861C140.806 39.9861 137.078 43.5115 137.078 48.7194C137.034 49.8672 137.225 51.0118 137.638 52.0834C138.051 53.1551 138.678 54.1313 139.481 54.9525C140.284 55.7737 141.246 56.4227 142.308 56.8598C143.37 57.297 144.511 57.5131 145.659 57.4951C147.099 57.4979 148.519 57.1499 149.794 56.4811C151.07 55.8124 152.163 54.843 152.98 53.6568L149.954 51.6446C149.515 52.3887 148.888 53.0035 148.135 53.4266C147.382 53.8498 146.531 54.0663 145.667 54.0541C144.77 54.0912 143.883 53.859 143.119 53.3874C142.355 52.9158 141.75 52.2264 141.381 51.4079L153.107 46.5467L152.499 45.1179C151.94 43.6336 150.948 42.3516 149.651 41.438C148.355 40.5245 146.814 40.0216 145.228 39.9945L145.236 39.9861ZM145.388 43.3678C146.05 43.3393 146.706 43.4999 147.279 43.8308C147.853 44.1617 148.32 44.6493 148.626 45.2362L140.798 48.5081C140.759 47.8685 140.847 47.2276 141.057 46.6223C141.267 46.0171 141.595 45.4594 142.022 44.9815C142.449 44.5036 142.966 44.115 143.544 43.838C144.122 43.5611 144.749 43.4012 145.388 43.3678ZM131.489 56.9793H135.345V31.202H131.489V56.9793Z" fill="#664DFF"/>
</svg>
