<svg width="200" height="96" viewBox="0 0 200 96" fill="none" xmlns="http://www.w3.org/2000/svg">
<path d="M75.4414 47.1617C75.4414 52.8842 79.0862 56.8742 84.1367 56.8742C89.1873 56.8742 92.8321 52.8842 92.8321 47.1617C92.8321 41.4392 89.1873 37.4492 84.1367 37.4492C79.0862 37.4492 75.4414 41.4392 75.4414 47.1617ZM89.4997 47.1617C89.4997 51.2567 87.2868 53.908 84.1367 53.908C80.9866 53.908 78.7737 51.2567 78.7737 47.1617C78.7737 43.0667 80.9866 40.4155 84.1367 40.4155C87.2868 40.4155 89.4997 43.0667 89.4997 47.1617Z" fill="#664DFF"/>
<path d="M102.215 56.8745C106.042 56.8745 108.229 53.6195 108.229 49.7082C108.229 45.797 106.042 42.542 102.215 42.542C100.445 42.542 99.1433 43.2507 98.2842 44.2745V42.8045H95.1602V61.3107H98.2842V55.142C99.1433 56.1657 100.445 56.8745 102.215 56.8745ZM98.2061 49.3145C98.2061 46.7157 99.664 45.2982 101.591 45.2982C103.855 45.2982 105.079 47.0832 105.079 49.7082C105.079 52.3332 103.855 54.1182 101.591 54.1182C99.664 54.1182 98.2061 52.6745 98.2061 50.1282V49.3145Z" fill="#664DFF"/>
<path d="M116.686 56.8745C119.419 56.8745 121.58 55.4307 122.543 53.0157L119.862 51.992C119.445 53.4095 118.222 54.197 116.686 54.197C114.681 54.197 113.275 52.7532 113.041 50.3907H122.621V49.3407C122.621 45.5607 120.513 42.542 116.555 42.542C112.598 42.542 110.047 45.6657 110.047 49.7082C110.047 53.9607 112.78 56.8745 116.686 56.8745ZM116.529 45.1932C118.508 45.1932 119.445 46.5057 119.471 48.0282H113.197C113.666 46.1645 114.915 45.1932 116.529 45.1932Z" fill="#664DFF"/>
<path d="M124.965 56.5857H128.089V48.5007C128.089 46.532 129.521 45.482 130.927 45.482C132.645 45.482 133.322 46.7157 133.322 48.422V56.5857H136.446V47.5032C136.446 44.537 134.728 42.542 131.864 42.542C130.094 42.542 128.87 43.3557 128.089 44.2745V42.8045H124.965V56.5857Z" fill="#664DFF"/>
<path d="M145.593 37.7383L138.512 56.5858H141.818L143.406 52.2808H151.477L153.091 56.5858H156.449L149.368 37.7383H145.593ZM147.415 41.4658L150.383 49.3408H144.5L147.415 41.4658Z" fill="#664DFF"/>
<path d="M161.813 37.793H158.48V56.6405H161.813V37.793Z" fill="#664DFF"/>
<path d="M67.8088 44.6605C68.5964 42.2772 68.3252 39.6664 67.0658 37.4986C65.1718 34.1736 61.3644 32.463 57.6458 33.268C55.9916 31.3889 53.6149 30.3203 51.1233 30.3356C47.3223 30.3269 43.9499 32.7944 42.7805 36.4409C40.3387 36.9451 38.2311 38.4862 36.9977 40.6705C35.0896 43.9867 35.5246 48.167 38.0738 51.0108C37.2863 53.3941 37.5574 56.0048 38.8168 58.1727C40.7108 61.4977 44.5183 63.2083 48.2368 62.4033C49.8899 64.2823 52.2677 65.3509 54.7593 65.3345C58.5625 65.3444 61.936 62.8747 63.1054 59.2248C65.5471 58.7206 67.6548 57.1795 68.8882 54.9953C70.7941 51.6791 70.358 47.502 67.8099 44.6583L67.8088 44.6605ZM54.7615 63.0475C53.2396 63.0497 51.7654 62.5127 50.5972 61.5294C50.6503 61.5009 50.7425 61.4495 50.8022 61.4123L57.7142 57.3873C58.0678 57.185 58.2848 56.8055 58.2826 56.3953V46.5701L61.2038 48.2709C61.2353 48.2862 61.2559 48.3169 61.2602 48.3519V56.4883C61.2559 60.1064 58.3498 63.0398 54.7615 63.0475ZM40.7856 57.0286C40.0231 55.7008 39.7486 54.1444 40.0101 52.6339C40.061 52.6645 40.1511 52.7203 40.2151 52.7575L47.1271 56.7825C47.4774 56.9892 47.9113 56.9892 48.2628 56.7825L56.701 51.8694V55.2709C56.7032 55.3059 56.6869 55.3398 56.6598 55.3617L49.673 59.4294C46.5608 61.2362 42.5863 60.1622 40.7867 57.0286H40.7856ZM38.9665 41.8156C39.7259 40.4856 40.9245 39.4684 42.352 38.9401C42.352 39.0003 42.3488 39.1064 42.3488 39.1808V47.2319C42.3466 47.6409 42.5635 48.0205 42.9161 48.2228L51.3543 53.1348L48.4331 54.8356C48.4038 54.8553 48.3669 54.8586 48.3344 54.8444L41.3465 50.7734C38.2408 48.96 37.1756 44.9536 38.9654 41.8167L38.9665 41.8156ZM62.9676 47.4473L54.5294 42.5342L57.4506 40.8345C57.4799 40.8148 57.5168 40.8116 57.5493 40.8258L64.5372 44.8934C67.6483 46.7058 68.7146 50.7187 66.9172 53.8556C66.1568 55.1834 64.9592 56.2006 63.5328 56.73V48.4383C63.536 48.0292 63.3202 47.6508 62.9687 47.4473H62.9676ZM65.8747 43.0351C65.8237 43.0034 65.7337 42.9487 65.6697 42.9116L58.7577 38.8866C58.4073 38.6798 57.9734 38.6798 57.622 38.8866L49.1837 43.7997V40.3981C49.1816 40.3631 49.1978 40.3292 49.225 40.3073L56.2118 36.243C59.3239 34.4328 63.3028 35.5101 65.097 38.6492C65.8552 39.9748 66.1296 41.5269 65.8726 43.0351H65.8747ZM47.5957 49.0978L44.6734 47.397C44.6419 47.3817 44.6213 47.3511 44.617 47.3161V39.1797C44.6191 35.5572 47.5339 32.6216 51.1265 32.6237C52.6463 32.6237 54.1172 33.1619 55.2854 34.1419C55.2323 34.1703 55.1412 34.2217 55.0804 34.2589L48.1684 38.2839C47.8148 38.4862 47.5978 38.8647 47.6 39.2748L47.5957 49.0956V49.0978ZM49.1827 45.6481L52.9413 43.4595L56.7 45.647V50.0231L52.9413 52.2106L49.1827 50.0231V45.6481Z" fill="#664DFF"/>
</svg>
