<svg width="200" height="96" viewBox="0 0 200 96" fill="none" xmlns="http://www.w3.org/2000/svg">
<path d="M121.658 57.7021C119.455 57.5611 118.174 56.3082 117.835 53.9636C117.744 53.3396 117.744 53.3234 117.734 49.2746L117.726 45.3555H119.674L119.683 49.1466C119.689 52.5633 119.693 52.9636 119.726 53.2035C119.858 54.1792 120.123 54.8348 120.572 55.3057C120.932 55.6825 121.354 55.903 121.937 56.0205C122.213 56.0756 122.995 56.0756 123.247 56.0205C123.81 55.9055 124.326 55.6253 124.73 55.2157C125.206 54.74 125.559 54.065 125.73 53.3015L125.787 53.0438L125.794 49.2211L125.8 45.3984H127.79V57.4176H125.821V56.4638C125.821 55.8162 125.813 55.5131 125.799 55.518C125.754 55.5701 125.716 55.6279 125.686 55.6898C125.327 56.3275 124.8 56.8544 124.162 57.2134C123.419 57.6226 122.674 57.7677 121.657 57.7021H121.658ZM144.011 57.6923C143.209 57.6258 142.434 57.373 141.747 56.9541C140.337 56.0829 139.502 54.646 139.257 52.6694C139.173 51.9862 139.162 51.0672 139.233 50.4862C139.391 49.1871 139.901 47.9123 140.629 47.0022C140.816 46.7688 141.239 46.3466 141.472 46.1602C142.101 45.6579 142.837 45.3069 143.624 45.1342C144.081 45.0346 144.884 44.9884 145.369 45.0329C146.586 45.1456 147.703 45.7186 148.462 46.6197C149.233 47.5355 149.656 48.8159 149.711 50.3922C149.719 50.6394 149.721 51.0729 149.715 51.3549L149.704 51.8679L145.438 51.8736L141.173 51.8785V52.0689C141.181 52.6881 141.312 53.2995 141.557 53.868C141.767 54.3518 142.128 54.8802 142.424 55.1355C143.032 55.6598 143.789 55.9794 144.588 56.0488C144.889 56.0772 145.657 56.0472 146.001 55.9945C146.965 55.8508 147.879 55.4742 148.664 54.8972C148.754 54.8308 148.838 54.7684 148.853 54.7595C148.875 54.7457 148.88 54.9183 148.879 55.6469V56.5513L148.677 56.6761C147.806 57.2083 146.831 57.5459 145.818 57.6656C145.51 57.7037 144.38 57.7207 144.011 57.6923ZM147.724 50.0632C147.724 49.0931 147.315 48.0161 146.736 47.4617C146.323 47.0662 145.796 46.811 145.23 46.7324C144.949 46.6886 144.357 46.7048 144.06 46.7648C143.455 46.88 142.899 47.1751 142.465 47.6117C141.987 48.0854 141.626 48.6635 141.41 49.3006C141.329 49.534 141.235 49.9165 141.205 50.1304L141.192 50.2317H147.723L147.724 50.0632ZM89.8571 57.3909L93.076 48.9432L96.2861 40.523H98.3494L98.4344 40.7418C98.6962 41.4112 104.861 57.399 104.861 57.4079C104.861 57.4127 104.367 57.4176 103.764 57.4176H102.666L101.778 55.0545L100.889 52.6913H93.7349L93.7041 52.7715C93.6871 52.8153 93.307 53.8786 92.8605 55.1339L92.0476 57.4168H90.9487C90.0783 57.4168 89.8498 57.4119 89.8571 57.3909ZM100.236 50.8881C100.236 50.8841 99.6387 49.2649 98.9069 47.2899C97.5406 43.5945 97.4644 43.3724 97.3558 42.7784C97.3055 42.5004 97.2796 42.4931 97.2504 42.746C97.2073 43.0213 97.1448 43.2932 97.0632 43.5596C97.0276 43.6715 96.4117 45.3587 95.6953 47.3102C95.2566 48.4973 94.822 49.6859 94.3913 50.876C94.3913 50.8865 95.7066 50.8946 97.3137 50.8946C98.9215 50.8946 100.236 50.8914 100.236 50.8881ZM105.525 57.1097V56.8017L109.089 51.9076L112.654 47.0128L109.426 47.0022L106.199 46.9917L106.193 46.1732L106.188 45.3555H115.524V45.9082L111.958 50.8298C109.998 53.5366 108.394 55.7555 108.394 55.7603C108.394 55.766 109.979 55.7709 111.916 55.7709H115.438V57.4176H105.525V57.1097ZM131.681 57.403C131.673 57.3949 131.666 54.6817 131.666 51.3728V45.3555H133.615V46.5954C133.615 47.2786 133.623 47.837 133.633 47.837C133.643 47.837 133.69 47.7251 133.738 47.5882C133.964 46.9522 134.337 46.3786 134.827 45.9139C135.248 45.5052 135.786 45.2381 136.366 45.1496C136.533 45.1229 136.674 45.1172 137.008 45.1261C137.428 45.1375 137.647 45.1683 137.902 45.2509L137.983 45.2777V47.2972L137.752 47.1822C137.354 46.9804 136.908 46.8911 136.462 46.9236C136.148 46.9398 135.943 46.9804 135.692 47.0744C135.183 47.2621 134.75 47.6146 134.464 48.076C134.027 48.7883 133.749 49.5863 133.649 50.4157C133.633 50.5591 133.624 51.7245 133.62 54.022L133.614 57.4176H132.655C132.127 57.4176 131.689 57.4111 131.681 57.403ZM61.9158 32.1069C62.2437 32.107 62.5632 32.2098 62.8296 32.401C63.0959 32.5922 63.2956 32.862 63.4005 33.1726L72.9195 61.3765C72.9991 61.6122 73.0213 61.8636 72.9844 62.1097C72.9475 62.3558 72.8525 62.5895 72.7074 62.7916C72.5622 62.9937 72.371 63.1584 72.1496 63.2719C71.9282 63.3855 71.6829 63.4447 71.4341 63.4446H82.4038C82.7789 63.4436 83.1412 63.3084 83.4253 63.0634C83.7093 62.8185 83.8963 62.4799 83.9524 62.1091C83.9893 61.8632 83.9671 61.6121 83.8876 61.3765L74.3694 33.1726C74.2645 32.862 74.0649 32.592 73.7985 32.4008C73.5322 32.2097 73.2126 32.1069 72.8847 32.1069H61.9158ZM61.5617 32.2285C61.2334 32.2287 60.9135 32.3317 60.6469 32.5232C60.3803 32.7146 60.1804 32.9848 60.0754 33.2958L50.5563 61.498C50.4768 61.7336 50.4545 61.9847 50.4913 62.2306C50.5281 62.4765 50.6229 62.7101 50.768 62.9121C50.913 63.114 51.104 63.2785 51.3252 63.392C51.5465 63.5055 51.7915 63.5646 52.0402 63.5646H59.6994C60.0276 63.5647 60.3477 63.4619 60.6145 63.2706C60.8813 63.0793 61.0813 62.8091 61.1865 62.4981L63.0471 57.0075L59.4919 53.5998C59.4271 53.5349 59.1329 52.996 59.3946 52.5398C59.688 52.0997 60.1775 52.0997 60.1775 52.0997H64.7595L67.1648 45.1691L63.052 33.0746C63.0415 33.0154 62.8105 32.7115 62.4474 32.47C62.0844 32.2269 61.5609 32.2285 61.5609 32.2285H61.5617ZM60.2683 52.3056C60.1232 52.3054 59.9815 52.349 59.8616 52.4306C59.7416 52.5122 59.649 52.628 59.5959 52.7629C59.5427 52.8979 59.5314 53.0457 59.5634 53.1872C59.5955 53.3286 59.6694 53.4572 59.7755 53.556L69.8035 62.9162C70.0953 63.1885 70.4664 63.3482 70.8652 63.3482C70.8652 63.3482 71.2055 63.3717 71.4106 63.3393C71.8919 63.2631 72.345 62.87 72.4949 62.7047C72.8806 62.1909 72.7056 61.3918 72.7056 61.3918L69.6698 52.3047L60.2683 52.3056Z" fill="#664DFF"/>
</svg>
