<svg width="200" height="97" viewBox="0 0 200 97" fill="none" xmlns="http://www.w3.org/2000/svg">
<g clip-path="url(#clip0_109_771)">
<path d="M117.568 39.1372V58.6795H123.162V39.1372H117.568ZM73.5504 39.1042V58.663H79.1955V43.4762L83.5972 43.4928C85.0422 43.4928 86.0502 43.8405 86.739 44.5694C87.6294 45.4969 87.9821 47.0037 87.9821 49.7364V58.663H93.4593V47.8648C93.4593 40.1475 88.4694 39.1042 83.5972 39.1042H73.5504ZM126.59 39.1372V58.6795H135.662C140.5 58.6795 142.08 57.8845 143.777 56.1124C144.986 54.8704 145.759 52.1211 145.759 49.1236C145.759 46.3746 145.104 43.9235 143.945 42.3999C141.895 39.6671 138.904 39.1372 134.436 39.1372H126.59ZM132.134 43.377H134.536C138.031 43.377 140.282 44.9168 140.282 48.9249C140.282 52.9327 138.031 54.4893 134.536 54.4893H132.134V43.377ZM109.504 39.1372L104.833 54.6218L100.364 39.1372H94.3158L100.7 58.6795H108.764L115.216 39.1372H109.504ZM148.38 58.6795H153.975V39.1372H148.38V58.6795ZM164.072 39.1372L156.259 58.663H161.77L163.013 55.2016H172.253L173.429 58.6461H179.427L171.548 39.1369L164.072 39.1372ZM167.7 42.6978L171.094 51.8395H164.206L167.7 42.6978Z" fill="#664DFF"/>
<path d="M37.4443 42.3832V39.7003C37.7133 39.6838 37.9819 39.6672 38.2508 39.6672C45.7101 39.4355 50.5991 45.9936 50.5991 45.9936C50.5991 45.9936 45.3238 53.2147 39.6619 53.2147C38.9061 53.2147 38.1666 53.0987 37.4611 52.8669V44.7186C40.3678 45.0663 40.9557 46.3248 42.686 49.1898L46.5673 45.977C46.5673 45.977 43.7279 42.317 38.9567 42.317C38.4527 42.3005 37.9483 42.3336 37.4443 42.3832ZM37.4446 33.5065V37.5143L38.2511 37.4647C48.6172 37.1169 55.3877 45.8445 55.3877 45.8445C55.3877 45.8445 47.6253 55.1518 39.5445 55.1518C38.8387 55.1518 38.1502 55.0857 37.4611 54.9697V57.4539C38.0325 57.5203 38.6204 57.5699 39.1915 57.5699C46.7182 57.5699 52.1614 53.7773 57.437 49.3058C58.3106 50.0013 61.889 51.674 62.6284 52.4029C57.6218 56.5432 45.9455 59.8719 39.3259 59.8719C38.7086 59.8728 38.0917 59.8396 37.4782 59.7724V63.2668H66.0724V33.5065H37.4446ZM37.4446 52.8666V54.9862C30.4893 53.7608 28.5571 46.623 28.5571 46.623C28.5571 46.623 31.9001 42.9795 37.4443 42.3832L37.4446 44.7017H37.4279C34.5211 44.354 32.2364 47.0368 32.2364 47.0368C32.2364 47.0368 33.5302 51.5583 37.4446 52.8666ZM25.096 46.3248C25.096 46.3248 29.212 40.3297 37.4611 39.7003V37.5146C28.3217 38.2429 20.4254 45.8607 20.4254 45.8607C20.4254 45.8607 24.8942 58.6129 37.4443 59.7721V57.4536C28.2375 56.328 25.096 46.3248 25.096 46.3248Z" fill="#664DFF"/>
</g>
<defs>
<clipPath id="clip0_109_771">
<rect width="159" height="30" fill="white" transform="translate(20.4254 33.5065)"/>
</clipPath>
</defs>
</svg>
