<svg width="200" height="97" viewBox="0 0 200 97" fill="none" xmlns="http://www.w3.org/2000/svg">
<path d="M178.854 51.4631C178.186 53.2113 176.849 54.2139 175.024 54.2139C171.992 54.2139 170.141 52.0546 170.141 48.5324C170.141 44.9594 171.992 42.7998 175.024 42.7998C176.849 42.7998 178.186 43.8024 178.854 45.5505H182.941C181.938 41.6946 178.931 39.2009 175.024 39.2009C169.833 39.2009 166.158 43.0568 166.158 48.5324C166.158 53.9565 169.833 57.8128 175.024 57.8128C178.957 57.8128 181.964 55.2935 182.966 51.4631H178.854ZM154.281 39.5149L161.455 57.5104H165.39L158.215 39.5149H154.281ZM145.982 47.5101H141.225V42.9853H145.982C147.885 42.9853 148.888 43.7564 148.888 45.2475C148.888 46.7386 147.885 47.5101 145.982 47.5101ZM146.162 39.5149H137.367V57.5104H141.225V50.9808H146.162C150.251 50.9808 152.745 48.8212 152.745 45.2475C152.745 41.6745 150.251 39.5149 146.162 39.5149ZM124.946 54.2139C121.914 54.2139 120.063 52.0546 120.063 48.5324C120.063 44.9594 121.914 42.7998 124.946 42.7998C127.953 42.7998 129.778 44.9591 129.778 48.5324C129.778 52.0546 127.953 54.2139 124.946 54.2139ZM124.946 39.2009C119.755 39.2009 116.08 43.0568 116.08 48.5324C116.08 53.9565 119.755 57.8128 124.946 57.8128C130.112 57.8128 133.761 53.9565 133.761 48.5324C133.761 43.0568 130.111 39.2009 124.946 39.2009M101.615 42.9853H106.371C108.274 42.9853 109.276 43.6797 109.276 44.9908C109.276 46.3019 108.274 46.996 106.371 46.996H101.615V42.9853ZM113.133 44.9908C113.133 41.5971 110.639 39.5149 106.551 39.5149H97.7588V57.5104H101.615V50.4664H105.908L109.765 57.5104H114.033L109.763 49.9299C111.906 49.106 113.133 47.3709 113.133 44.9908ZM89.1459 46.6875H80.6642V39.5149H76.8089V57.5104H80.6645V50.1578H89.1462V57.5104H93.0012V39.5149H89.1459V46.6875ZM57.7784 42.9853H63.8189V57.5104H67.6745V42.9853H73.7147V39.5149H57.7784V42.9853ZM50.969 52.1116L42.8729 39.5152H38.5035V57.5104H42.2303V44.9134L50.3268 57.5104H54.6958V39.5149H50.969V52.1116ZM23.9919 50.389L26.4465 44.0652L28.9013 50.3893L23.9919 50.389ZM24.3895 39.5149L17.2162 57.5104H21.2273L22.6944 53.7312H30.1991L31.6656 57.5104H35.6767L28.5038 39.5149H24.3895Z" fill="#664DFF"/>
</svg>
