<svg width="200" height="96" viewBox="0 0 200 96" fill="none" xmlns="http://www.w3.org/2000/svg">
<path d="M123.147 28.1218C122.182 28.1218 121.26 28.2317 120.384 28.4942C119.507 28.7567 118.76 29.1312 118.103 29.6337C117.454 30.1134 116.916 30.7267 116.525 31.4321C116.13 32.1342 115.932 32.9456 115.932 33.8675C115.932 35.0065 116.305 36.0809 117.029 37.0471C117.751 38.034 118.935 38.7783 120.536 39.2829L123.716 40.2699C124.79 40.6214 125.537 40.9943 125.932 41.411C126.326 41.8282 126.524 42.3302 126.524 42.9448C126.524 43.8437 126.129 44.5458 125.383 45.0281C124.638 45.5098 123.564 45.7525 122.182 45.7525C121.304 45.7525 120.449 45.665 119.572 45.49C118.743 45.3194 117.934 45.0617 117.159 44.7213C116.94 44.6338 116.742 44.5463 116.612 44.5036C116.485 44.4596 116.352 44.4367 116.217 44.4359C115.887 44.4359 115.713 44.6562 115.713 45.1156V46.2348C115.713 46.4466 115.758 46.656 115.845 46.8494C115.932 47.0473 116.172 47.266 116.525 47.4639C117.094 47.791 117.948 48.078 119.045 48.3405C120.142 48.603 121.283 48.7353 122.422 48.7353C123.542 48.7353 124.573 48.5806 125.56 48.2754C126.501 47.9884 127.313 47.5936 127.993 47.0462C128.672 46.5202 129.199 45.8624 129.594 45.1156C129.966 44.3713 130.164 43.5167 130.164 42.5729C130.164 41.4334 129.834 40.4022 129.154 39.5027C128.475 38.6033 127.336 37.9017 125.757 37.3971L122.643 36.4101C121.481 36.0388 120.669 35.6205 120.229 35.2039C119.792 34.7888 119.572 34.2622 119.572 33.6477C119.572 32.7488 119.922 32.1113 120.604 31.6967C121.283 31.2795 122.27 31.0821 123.519 31.0821C125.075 31.0821 126.479 31.367 127.73 31.9363C128.102 32.1118 128.387 32.2009 128.562 32.2009C128.892 32.2009 129.067 31.9597 129.067 31.4993V30.4681C129.067 30.1608 129.002 29.9207 128.869 29.7436C128.739 29.5468 128.519 29.3712 128.212 29.1963C127.992 29.064 127.686 28.9338 127.29 28.8015C126.879 28.6682 126.462 28.5508 126.041 28.4494C125.58 28.3619 125.12 28.2744 124.615 28.2098C124.128 28.1481 123.638 28.1187 123.147 28.1218ZM77.9283 28.1645C76.722 28.1645 75.5804 28.2968 74.5065 28.5817C73.432 28.8447 72.5112 29.1739 71.7446 29.5686C71.4373 29.7233 71.2394 29.8759 71.13 30.0285C71.0201 30.1827 70.9774 30.4452 70.9774 30.7972V31.8717C70.9774 32.3311 71.13 32.5508 71.4373 32.5508C71.5248 32.5508 71.6342 32.5284 71.7883 32.4857C71.9409 32.4409 72.2029 32.3535 72.555 32.2009C73.3256 31.896 74.117 31.6466 74.9231 31.4545C75.6986 31.2652 76.4941 31.1696 77.2923 31.1696C78.9808 31.1696 80.1636 31.4993 80.8667 32.179C81.5459 32.8576 81.8979 34.0195 81.8979 35.6862V37.2872C81.0214 37.0898 80.1881 36.9148 79.3756 36.8049C78.5642 36.6955 77.797 36.6299 77.0522 36.6299C74.7919 36.6299 73.0159 37.1997 71.6795 38.3413C70.3405 39.4803 69.6837 40.9938 69.6837 42.8573C69.6837 44.6114 70.2306 46.015 71.305 47.0686C72.381 48.1207 73.8503 48.6478 75.6913 48.6478C78.2798 48.6478 80.4292 47.6384 82.1385 45.6202C82.3471 46.0606 82.5737 46.4922 82.8177 46.914C83.048 47.2817 83.3123 47.627 83.6073 47.9452C83.827 48.1431 84.0468 48.2525 84.2666 48.2525C84.4406 48.2525 84.6385 48.1858 84.8359 48.0556L86.2176 47.1337C86.502 46.915 86.6343 46.6947 86.6343 46.477C86.6311 46.2977 86.5783 46.1228 86.4817 45.9718C86.2093 45.4638 85.9748 44.9363 85.7801 44.3937C85.6254 43.912 85.5379 43.2531 85.5379 42.4407H85.4931V35.3362C85.4931 32.9232 84.8807 31.1248 83.6744 29.9405C82.4453 28.7567 80.5365 28.1645 77.9283 28.1645ZM88.1259 28.6916C87.7738 28.6916 87.5988 28.889 87.5988 29.239C87.5988 29.3936 87.666 29.6785 87.7962 30.1176L92.9492 47.0686C93.0815 47.4853 93.2341 47.791 93.4111 47.9233C93.5861 48.078 93.8486 48.1431 94.2434 48.1431H96.1288C96.5241 48.1431 96.8303 48.078 97.0058 47.9233C97.1829 47.7707 97.3136 47.4858 97.423 47.0462L100.8 32.9232L104.2 47.0686C104.287 47.5061 104.439 47.791 104.617 47.9457C104.792 48.0978 105.076 48.1655 105.494 48.1655H107.379C107.752 48.1655 108.037 48.0785 108.212 47.9457C108.389 47.8139 108.541 47.529 108.674 47.0916L113.959 30.1384C114.046 29.8988 114.089 29.7233 114.112 29.591C114.134 29.4587 114.156 29.3483 114.156 29.239C114.156 28.8666 113.959 28.6921 113.607 28.6921H111.569C111.175 28.6921 110.888 28.7786 110.713 28.9114C110.56 29.0416 110.405 29.328 110.275 29.7655L106.481 44.4593L103.016 29.7665C102.929 29.3499 102.774 29.0426 102.599 28.9124C102.424 28.7572 102.138 28.6921 101.722 28.6921H99.9682C99.5734 28.6921 99.2662 28.7791 99.0891 28.9119C98.9146 29.0421 98.7828 29.3285 98.6745 29.766L95.2527 44.2843L91.568 29.7665C91.4378 29.3499 91.3055 29.0426 91.1305 28.9124C90.9758 28.7572 90.6909 28.6921 90.2742 28.6921L88.1259 28.6916ZM77.8616 39.2402C78.5511 39.2407 79.2399 39.2842 79.924 39.3704C80.6028 39.4566 81.2761 39.5817 81.9406 39.7449V40.6641C81.9406 41.4115 81.8531 42.0459 81.7209 42.5729C81.5906 43.099 81.3261 43.5599 80.9761 43.9765C80.3839 44.6338 79.6824 45.1156 78.8928 45.3802C78.1033 45.6426 77.3569 45.7749 76.6345 45.7749C75.6257 45.7749 74.8586 45.5104 74.3315 44.963C73.7825 44.437 73.5201 43.6693 73.5201 42.638C73.5201 41.5412 73.8716 40.7089 74.594 40.1173C75.3184 39.5251 76.3929 39.2402 77.8616 39.2402ZM128.048 52.7044C125.739 52.7372 123.014 53.2523 120.954 54.7002C120.317 55.1601 120.426 55.7741 121.129 55.6866C123.476 55.4017 128.649 54.7877 129.571 55.9715C130.493 57.1329 128.542 62.0234 127.663 64.1952C127.401 64.8515 127.971 65.1165 128.562 64.6119C132.421 61.3667 133.431 54.5903 132.641 53.6033C132.247 53.1216 130.356 52.6711 128.048 52.7044ZM67.44 54.0122C66.9578 54.0726 66.7385 54.6559 67.2484 55.1168C75.846 62.8781 87.2264 67.5498 99.8583 67.5498C108.871 67.5498 119.353 64.7218 126.566 59.3938C127.75 58.5141 126.722 57.1782 125.514 57.7251C117.424 61.1469 108.629 62.8135 100.625 62.8135C88.7623 62.8135 77.2929 59.5464 67.9947 54.1507C67.7916 54.0304 67.6015 53.9924 67.4405 54.0122H67.44Z" fill="#664DFF"/>
</svg>
