<svg width="298" height="258" viewBox="0 0 298 258" fill="none" xmlns="http://www.w3.org/2000/svg">
<path d="M148.948 41.7355V85.4305M9.04032 212.704H30.8878C34.9098 212.704 38.1703 209.444 38.1703 205.422V132.597C38.1703 128.575 34.9098 125.314 30.8878 125.314H9.04032C5.0183 125.314 1.75781 128.575 1.75781 132.597V205.422C1.75781 209.444 5.0183 212.704 9.04032 212.704ZM267.008 212.705H288.855C292.877 212.705 296.138 209.444 296.138 205.422V132.597C296.138 128.575 292.877 125.314 288.855 125.314H267.008C262.986 125.314 259.725 128.575 259.725 132.597V205.422C259.725 209.444 262.986 212.705 267.008 212.705ZM170.795 23.5023C170.795 35.5683 161.014 45.3498 148.948 45.3498C136.882 45.3498 127.1 35.5683 127.1 23.5023C127.1 11.4362 136.882 1.65479 148.948 1.65479C161.014 1.65479 170.795 11.4362 170.795 23.5023ZM54.2751 256.399H243.62C251.664 256.399 258.185 249.878 258.185 241.834V96.1842C258.185 88.1402 251.664 81.6192 243.62 81.6192H54.2751C46.231 81.6192 39.71 88.1402 39.71 96.1842V241.834C39.71 249.878 46.231 256.399 54.2751 256.399ZM116.176 169.009C116.176 181.075 106.395 190.857 94.3287 190.857C82.2626 190.857 72.4811 181.075 72.4811 169.009C72.4811 156.943 82.2626 147.162 94.3287 147.162C106.395 147.162 116.176 156.943 116.176 169.009ZM225.414 169.009C225.414 181.075 215.632 190.857 203.566 190.857C191.5 190.857 181.719 181.075 181.719 169.009C181.719 156.943 191.5 147.162 203.566 147.162C215.632 147.162 225.414 156.943 225.414 169.009Z" stroke="#2C274B" stroke-width="3"/>
</svg>
